{
  "source": "C:\\Users\\Peter\\Desktop\\stuff\\MIUN\\quantitative_research\\video_compression\\videos\\BVI-HD\\BVI-HD_CDVL_videos\\ORIG\\Toys_1920x1080_30fps.mp4",
  "output": "C:\\Users\\Peter\\Desktop\\stuff\\MIUN\\quantitative_research\\video_compression\\compressed_videos\\BVI-HD\\av1\\2.5\\Toys_1920x1080_30fps_av1.mkv",
  "codec": "av1",
  "ok": "Input #0, mov,mp4,m4a,3gp,3g2,mj2, from 'C:\\Users\\Peter\\Desktop\\stuff\\MIUN\\quantitative_research\\video_compression\\videos\\BVI-HD\\BVI-HD_CDVL_videos\\ORIG\\Toys_1920x1080_30fps.mp4':\n  Metadata:\n    major_brand     : isom\n    minor_version   : 512\n    compatible_brands: isomiso2avc1mp41\n    encoder         : Lavf54.28.101\n  Duration: 00:00:05.00, start: 0.000000, bitrate: 270887 kb/s\n  Stream #0:0[0x1](und): Video: h264 (High 4:4:4 Predictive) (avc1 / 0x31637661), yuv420p(progressive), 1920x1080, 270883 kb/s, 30 fps, 30 tbr, 30 tbn (default)\n    Metadata:\n      handler_name    : VideoHandler\n      vendor_id       : [0][0][0][0]\n[out#0/matroska @ 000002235482f040] Codec AVOption b:a (set bitrate (in bits/s)) has not been used for any stream. The most likely reason is either wrong type (e.g. a video option with no video streams) or that it is a private option of some decoder which was not actually used for any stream.\nStream mapping:\n  Stream #0:0 -> #0:0 (h264 (native) -> av1 (libsvtav1))\nPress [q] to stop, [?] for help\nSvt[info]: -------------------------------------------\nSvt[info]: SVT [version]:\tSVT-AV1 Encoder Lib v3.1.0-19-g6ecfe8ec\nSvt[info]: SVT [build]  :\tGCC 15.2.0\t 64 bit\nSvt[info]: LIB Build date: Aug 17 2025 11:37:13\nSvt[info]: -------------------------------------------\nSvt[info]: Level of Parallelism: 5\nSvt[info]: Number of PPCS 93\nSvt[info]: [asm level on system : up to avx2]\nSvt[info]: [asm level selected : up to avx2]\nSvt[info]: -------------------------------------------\nSvt[info]: SVT [config]: main profile\ttier (auto)\tlevel (auto)\nSvt[info]: SVT [config]: width / height / fps numerator / fps denominator \t\t: 1920 / 1080 / 30 / 1\nSvt[info]: SVT [config]: bit-depth / color format \t\t\t\t\t: 8 / YUV420\nSvt[info]: SVT [config]: preset / tune / pred struct \t\t\t\t\t: 4 / PSNR / random access\nSvt[info]: SVT [config]: gop size / mini-gop size / key-frame type \t\t\t: 161 / 16 / key frame\nSvt[info]: SVT [config]: BRC mode / target bitrate (kbps)\t\t\t\t: VBR / 2500 \nSvt[info]: SVT [config]: AQ mode / Variance Boost \t\t\t\t\t: 2 / 0\nSvt[info]: SVT [config]: sharpness / luminance-based QP bias \t\t\t\t: 0 / 0\nSvt[info]: SVT [config]: QP scale compress strength \t\t\t\t\t: 0\nSvt[info]: -------------------------------------------\nOutput #0, matroska, to 'C:\\Users\\Peter\\Desktop\\stuff\\MIUN\\quantitative_research\\video_compression\\compressed_videos\\BVI-HD\\av1\\2.5\\Toys_1920x1080_30fps_av1.mkv':\n  Metadata:\n    major_brand     : isom\n    minor_version   : 512\n    compatible_brands: isomiso2avc1mp41\n    encoder         : Lavf62.3.100\n  Stream #0:0(und): Video: av1 (AV01 / 0x31305641), yuv420p(tv, progressive), 1920x1080, q=2-31, 2500 kb/s, 30 fps, 1k tbn (default)\n    Metadata:\n      encoder         : Lavc62.11.100 libsvtav1\n      handler_name    : VideoHandler\n      vendor_id       : [0][0][0][0]\n    Side data:\n      cpb: bitrate max/min/avg: 0/0/2500000 buffer size: 2500000 vbv_delay: N/A\nframe=    0 fps=0.0 q=0.0 size=       0KiB time=N/A bitrate=N/A speed=N/A elapsed=0:00:01.03    \nframe=    0 fps=0.0 q=0.0 size=       0KiB time=N/A bitrate=N/A speed=N/A elapsed=0:00:01.57    \nframe=    0 fps=0.0 q=0.0 size=       0KiB time=N/A bitrate=N/A speed=N/A elapsed=0:00:02.17    \nframe=    0 fps=0.0 q=0.0 size=       0KiB time=N/A bitrate=N/A speed=N/A elapsed=0:00:02.78    \nframe=    0 fps=0.0 q=0.0 size=       0KiB time=N/A bitrate=N/A speed=N/A elapsed=0:00:03.39    \nframe=    0 fps=0.0 q=0.0 size=       0KiB time=N/A bitrate=N/A speed=N/A elapsed=0:00:03.92    \nframe=    0 fps=0.0 q=0.0 size=       0KiB time=N/A bitrate=N/A speed=N/A elapsed=0:00:04.48    \nframe=    0 fps=0.0 q=0.0 size=       0KiB time=N/A bitrate=N/A speed=N/A elapsed=0:00:05.01    \nframe=    1 fps=0.2 q=26.0 size=       1KiB time=00:00:00.00 bitrate=N/A speed=   0x elapsed=0:00:05.55    \nframe=    1 fps=0.2 q=26.0 size=       1KiB time=00:00:00.00 bitrate=N/A speed=   0x elapsed=0:00:06.12    \nframe=    1 fps=0.1 q=26.0 size=       1KiB time=00:00:00.00 bitrate=N/A speed=   0x elapsed=0:00:06.67    \nframe=    1 fps=0.1 q=26.0 size=       1KiB time=00:00:00.00 bitrate=N/A speed=   0x elapsed=0:00:07.21    \nframe=    2 fps=0.3 q=44.0 size=       1KiB time=00:00:00.03 bitrate= 171.1kbits/s speed=0.0043x elapsed=0:00:07.74    \nframe=    6 fps=0.7 q=43.0 size=       1KiB time=00:00:00.16 bitrate=  34.2kbits/s speed=0.0201x elapsed=0:00:08.27    \nframe=    8 fps=0.9 q=43.0 size=       1KiB time=00:00:00.23 bitrate=  24.4kbits/s speed=0.0264x elapsed=0:00:08.83    \nframe=   10 fps=1.1 q=43.0 size=       1KiB time=00:00:00.30 bitrate=  19.0kbits/s speed=0.0318x elapsed=0:00:09.43    \nframe=   14 fps=1.4 q=42.0 size=       1KiB time=00:00:00.43 bitrate=  13.2kbits/s speed=0.0433x elapsed=0:00:10.01    \nframe=   18 fps=1.7 q=43.0 size=       1KiB time=00:00:00.56 bitrate=  10.1kbits/s speed=0.0534x elapsed=0:00:10.60    \nframe=   23 fps=2.1 q=42.0 size=       1KiB time=00:00:00.73 bitrate=   7.8kbits/s speed=0.0657x elapsed=0:00:11.15    \nframe=   24 fps=2.0 q=43.0 size=       1KiB time=00:00:00.76 bitrate=   7.4kbits/s speed=0.0655x elapsed=0:00:11.71    \nframe=   29 fps=2.4 q=37.0 size=       1KiB time=00:00:00.90 bitrate=   6.3kbits/s speed=0.0732x elapsed=0:00:12.30    \nframe=   32 fps=2.5 q=42.0 size=       1KiB time=00:00:01.03 bitrate=   5.5kbits/s speed=0.0804x elapsed=0:00:12.85    \nframe=   37 fps=2.8 q=40.0 size=       1KiB time=00:00:01.20 bitrate=   4.8kbits/s speed=0.0897x elapsed=0:00:13.38    \nframe=   40 fps=2.9 q=43.0 size=       1KiB time=00:00:01.30 bitrate=   4.4kbits/s speed=0.0934x elapsed=0:00:13.91    \nframe=   44 fps=3.0 q=42.0 size=       1KiB time=00:00:01.43 bitrate=   4.0kbits/s speed=0.0986x elapsed=0:00:14.53    \nframe=   48 fps=3.2 q=42.0 size=       1KiB time=00:00:01.56 bitrate=   3.6kbits/s speed=0.104x elapsed=0:00:15.09    \nframe=   52 fps=3.3 q=43.0 size=       1KiB time=00:00:01.70 bitrate=   3.4kbits/s speed=0.109x elapsed=0:00:15.62    \nframe=   57 fps=3.5 q=36.0 size=       1KiB time=00:00:01.86 bitrate=   3.1kbits/s speed=0.116x elapsed=0:00:16.15    \nframe=   57 fps=3.4 q=36.0 size=       1KiB time=00:00:01.86 bitrate=   3.1kbits/s speed=0.112x elapsed=0:00:16.72    \nframe=   61 fps=3.5 q=37.0 size=       1KiB time=00:00:02.00 bitrate=   2.9kbits/s speed=0.116x elapsed=0:00:17.29    \nframe=   67 fps=3.7 q=42.0 size=       1KiB time=00:00:02.20 bitrate=   2.6kbits/s speed=0.123x elapsed=0:00:17.87    \nframe=   73 fps=4.0 q=36.0 size=       1KiB time=00:00:02.40 bitrate=   2.4kbits/s speed=0.13x elapsed=0:00:18.41    \nframe=   73 fps=3.9 q=36.0 size=       1KiB time=00:00:02.40 bitrate=   2.4kbits/s speed=0.127x elapsed=0:00:18.92    \nframe=   77 fps=4.0 q=37.0 size=       1KiB time=00:00:02.53 bitrate=   2.3kbits/s speed=0.13x elapsed=0:00:19.46    \nframe=   81 fps=4.0 q=29.0 size=       1KiB time=00:00:02.66 bitrate=   2.1kbits/s speed=0.133x elapsed=0:00:20.03    \nframe=   87 fps=4.2 q=39.0 size=       1KiB time=00:00:02.86 bitrate=   2.0kbits/s speed=0.139x elapsed=0:00:20.60    \nframe=   89 fps=4.2 q=36.0 size=       1KiB time=00:00:02.93 bitrate=   1.9kbits/s speed=0.139x elapsed=0:00:21.16    \nframe=   93 fps=4.3 q=38.0 size=       1KiB time=00:00:03.06 bitrate=   1.9kbits/s speed=0.141x elapsed=0:00:21.70    \nframe=   97 fps=4.4 q=29.0 size=       1KiB time=00:00:03.20 bitrate=   1.8kbits/s speed=0.144x elapsed=0:00:22.28    \nframe=  103 fps=4.5 q=39.0 size=       1KiB time=00:00:03.40 bitrate=   1.7kbits/s speed=0.149x elapsed=0:00:22.80    \nframe=  105 fps=4.5 q=37.0 size=       1KiB time=00:00:03.46 bitrate=   1.6kbits/s speed=0.149x elapsed=0:00:23.31    \nframe=  111 fps=4.7 q=41.0 size=       1KiB time=00:00:03.66 bitrate=   1.6kbits/s speed=0.154x elapsed=0:00:23.83    \nframe=  117 fps=4.8 q=41.0 size=       1KiB time=00:00:03.80 bitrate=   1.5kbits/s speed=0.156x elapsed=0:00:24.41    \nframe=  119 fps=4.8 q=39.0 size=       1KiB time=00:00:03.93 bitrate=   1.5kbits/s speed=0.157x elapsed=0:00:24.98    \nframe=  121 fps=4.7 q=37.0 size=       1KiB time=00:00:04.00 bitrate=   1.4kbits/s speed=0.157x elapsed=0:00:25.54    \nframe=  125 fps=4.8 q=40.0 size=       1KiB time=00:00:04.13 bitrate=   1.4kbits/s speed=0.158x elapsed=0:00:26.12    \nframe=  129 fps=4.8 q=30.0 size=       1KiB time=00:00:04.26 bitrate=   1.3kbits/s speed=0.16x elapsed=0:00:26.72    \nframe=  133 fps=4.9 q=42.0 size=       1KiB time=00:00:04.40 bitrate=   1.3kbits/s speed=0.161x elapsed=0:00:27.30    \nframe=  137 fps=4.9 q=40.0 size=       1KiB time=00:00:04.53 bitrate=   1.3kbits/s speed=0.163x elapsed=0:00:27.84    \nframe=  137 fps=4.8 q=40.0 size=       1KiB time=00:00:04.53 bitrate=   1.3kbits/s speed=0.16x elapsed=0:00:28.39    \nframe=  143 fps=4.9 q=44.0 size=       1KiB time=00:00:04.73 bitrate=   1.2kbits/s speed=0.164x elapsed=0:00:28.91    \n[out#0/matroska @ 000002235482f040] video:1545KiB audio:0KiB subtitle:0KiB other streams:0KiB global headers:0KiB muxing overhead: 0.091771%\nframe=  150 fps=5.2 q=44.0 Lsize=    1547KiB time=00:00:04.96 bitrate=2550.9kbits/s speed=0.171x elapsed=0:00:29.00    \n",
  "seconds": 29.58295726776123,
  "probe_out": {}
}